<svg xmlns="http://www.w3.org/2000/svg" viewBox="0 0 512 512">
  <defs>
    <linearGradient id="grad" x1="0%" y1="0%" x2="100%" y2="100%">
      <stop offset="0%" style="stop-color:#3b82f6;stop-opacity:1" />
      <stop offset="100%" style="stop-color:#1d4ed8;stop-opacity:1" />
    </linearGradient>
  </defs>
  <rect width="512" height="512" rx="64" fill="url(#grad)"/>
  <g fill="white">
    <!-- House icon -->
    <path d="M256 80L96 200v200h120V300h80v100h120V200L256 80z"/>
    <!-- Roof -->
    <path d="M256 48l-200 152h40L256 88l160 112h40L256 48z"/>
    <!-- Door -->
    <rect x="224" y="280" width="64" height="120" rx="4"/>
    <!-- Window left -->
    <rect x="128" y="240" width="56" height="56" rx="4" fill="#3b82f6"/>
    <!-- Window right -->
    <rect x="328" y="240" width="56" height="56" rx="4" fill="#3b82f6"/>
    <!-- Key symbol -->
    <circle cx="400" cy="400" r="24" fill="#fbbf24"/>
    <rect x="400" y="400" width="48" height="12" rx="2" fill="#fbbf24"/>
    <rect x="432" y="400" width="12" height="24" rx="2" fill="#fbbf24"/>
  </g>
</svg>
